<mxfile host="app.diagrams.net" modified="2021-05-06T01:28:18.776Z" agent="5.0 (Macintosh; Intel Mac OS X 10_15_7) AppleWebKit/537.36 (KHTML, like Gecko) Chrome/90.0.4430.93 Safari/537.36" etag="lk9446JP9SyCZJC4nUKX" version="14.6.1" type="github">
  <diagram id="EwsBgbDVOZr8Y71l48O0" name="Page-1">
    <mxGraphModel dx="1062" dy="626" grid="1" gridSize="10" guides="1" tooltips="1" connect="1" arrows="1" fold="1" page="1" pageScale="1" pageWidth="827" pageHeight="1169" math="0" shadow="0">
      <root>
        <mxCell id="0" />
        <mxCell id="1" parent="0" />
        <mxCell id="7r3X6bM9w-XORwUG6cQL-13" value="" style="ellipse;whiteSpace=wrap;html=1;aspect=fixed;fillColor=#B2C9AB;strokeColor=#788AA3;fontColor=#46495D;fontFamily=Comic Sans MS;" vertex="1" parent="1">
          <mxGeometry x="270" y="250" width="30" height="30" as="geometry" />
        </mxCell>
        <mxCell id="7r3X6bM9w-XORwUG6cQL-14" value="" style="ellipse;whiteSpace=wrap;html=1;aspect=fixed;fillColor=#f8cecc;strokeColor=#b85450;fontFamily=Comic Sans MS;" vertex="1" parent="1">
          <mxGeometry x="350" y="250" width="30" height="30" as="geometry" />
        </mxCell>
        <mxCell id="7r3X6bM9w-XORwUG6cQL-15" value="" style="ellipse;whiteSpace=wrap;html=1;aspect=fixed;fillColor=#B2C9AB;strokeColor=#788AA3;fontColor=#46495D;fontFamily=Comic Sans MS;" vertex="1" parent="1">
          <mxGeometry x="190" y="250" width="30" height="30" as="geometry" />
        </mxCell>
        <mxCell id="7r3X6bM9w-XORwUG6cQL-16" value="" style="endArrow=classic;html=1;fontColor=#46495D;strokeColor=#788AA3;fillColor=#B2C9AB;exitX=0;exitY=1;exitDx=0;exitDy=0;fontFamily=Comic Sans MS;" edge="1" source="7r3X6bM9w-XORwUG6cQL-19" parent="1">
          <mxGeometry width="50" height="50" relative="1" as="geometry">
            <mxPoint x="250" y="190" as="sourcePoint" />
            <mxPoint x="210" y="250" as="targetPoint" />
          </mxGeometry>
        </mxCell>
        <mxCell id="7r3X6bM9w-XORwUG6cQL-17" value="" style="endArrow=classic;html=1;fontColor=#46495D;strokeColor=#788AA3;fillColor=#B2C9AB;exitX=0.5;exitY=1;exitDx=0;exitDy=0;entryX=0.5;entryY=0;entryDx=0;entryDy=0;fontFamily=Comic Sans MS;" edge="1" source="7r3X6bM9w-XORwUG6cQL-19" target="7r3X6bM9w-XORwUG6cQL-13" parent="1">
          <mxGeometry width="50" height="50" relative="1" as="geometry">
            <mxPoint x="280" y="175" as="sourcePoint" />
            <mxPoint x="220" y="260" as="targetPoint" />
          </mxGeometry>
        </mxCell>
        <mxCell id="7r3X6bM9w-XORwUG6cQL-18" value="" style="endArrow=classic;html=1;fontColor=#46495D;strokeColor=#788AA3;fillColor=#B2C9AB;exitX=1;exitY=1;exitDx=0;exitDy=0;fontFamily=Comic Sans MS;" edge="1" source="7r3X6bM9w-XORwUG6cQL-19" parent="1">
          <mxGeometry width="50" height="50" relative="1" as="geometry">
            <mxPoint x="295" y="190" as="sourcePoint" />
            <mxPoint x="360" y="250" as="targetPoint" />
          </mxGeometry>
        </mxCell>
        <mxCell id="7r3X6bM9w-XORwUG6cQL-19" value="" style="ellipse;whiteSpace=wrap;html=1;aspect=fixed;fillColor=#B2C9AB;strokeColor=#788AA3;fontColor=#46495D;fontFamily=Comic Sans MS;" vertex="1" parent="1">
          <mxGeometry x="270" y="150" width="30" height="30" as="geometry" />
        </mxCell>
        <mxCell id="7r3X6bM9w-XORwUG6cQL-20" value="old vdom" style="text;html=1;align=center;verticalAlign=middle;resizable=0;points=[];autosize=1;strokeColor=none;fontColor=#46495D;fontFamily=Comic Sans MS;" vertex="1" parent="1">
          <mxGeometry x="250" y="110" width="60" height="20" as="geometry" />
        </mxCell>
        <mxCell id="7r3X6bM9w-XORwUG6cQL-21" value="new vdom" style="text;html=1;align=center;verticalAlign=middle;resizable=0;points=[];autosize=1;strokeColor=none;fontColor=#46495D;fontFamily=Comic Sans MS;" vertex="1" parent="1">
          <mxGeometry x="505" y="110" width="70" height="20" as="geometry" />
        </mxCell>
        <mxCell id="7r3X6bM9w-XORwUG6cQL-25" value="" style="ellipse;whiteSpace=wrap;html=1;aspect=fixed;fillColor=#e1d5e7;strokeColor=#9673a6;fontFamily=Comic Sans MS;" vertex="1" parent="1">
          <mxGeometry x="580" y="570" width="30" height="30" as="geometry" />
        </mxCell>
        <mxCell id="7r3X6bM9w-XORwUG6cQL-26" value="" style="ellipse;whiteSpace=wrap;html=1;aspect=fixed;fillColor=#e1d5e7;strokeColor=#9673a6;fontFamily=Comic Sans MS;" vertex="1" parent="1">
          <mxGeometry x="525" y="470" width="30" height="30" as="geometry" />
        </mxCell>
        <mxCell id="7r3X6bM9w-XORwUG6cQL-27" value="" style="ellipse;whiteSpace=wrap;html=1;aspect=fixed;fillColor=#e1d5e7;strokeColor=#9673a6;fontFamily=Comic Sans MS;" vertex="1" parent="1">
          <mxGeometry x="475" y="570" width="30" height="30" as="geometry" />
        </mxCell>
        <mxCell id="7r3X6bM9w-XORwUG6cQL-28" value="" style="endArrow=classic;html=1;fontColor=#46495D;strokeColor=#788AA3;fillColor=#B2C9AB;exitX=0;exitY=1;exitDx=0;exitDy=0;fontFamily=Comic Sans MS;entryX=0.5;entryY=0;entryDx=0;entryDy=0;" edge="1" source="7r3X6bM9w-XORwUG6cQL-26" target="7r3X6bM9w-XORwUG6cQL-27" parent="1">
          <mxGeometry width="50" height="50" relative="1" as="geometry">
            <mxPoint x="510" y="510" as="sourcePoint" />
            <mxPoint x="470" y="570" as="targetPoint" />
          </mxGeometry>
        </mxCell>
        <mxCell id="7r3X6bM9w-XORwUG6cQL-29" value="" style="endArrow=classic;html=1;fontColor=#46495D;strokeColor=#788AA3;fillColor=#B2C9AB;exitX=1;exitY=1;exitDx=0;exitDy=0;fontFamily=Comic Sans MS;" edge="1" source="7r3X6bM9w-XORwUG6cQL-26" parent="1">
          <mxGeometry width="50" height="50" relative="1" as="geometry">
            <mxPoint x="540" y="495" as="sourcePoint" />
            <mxPoint x="590" y="570" as="targetPoint" />
          </mxGeometry>
        </mxCell>
        <mxCell id="7r3X6bM9w-XORwUG6cQL-30" value="" style="ellipse;whiteSpace=wrap;html=1;aspect=fixed;fillColor=#e1d5e7;strokeColor=#9673a6;fontFamily=Comic Sans MS;" vertex="1" parent="1">
          <mxGeometry x="270" y="570" width="30" height="30" as="geometry" />
        </mxCell>
        <mxCell id="7r3X6bM9w-XORwUG6cQL-31" value="" style="ellipse;whiteSpace=wrap;html=1;aspect=fixed;fillColor=#f8cecc;strokeColor=#b85450;fontFamily=Comic Sans MS;" vertex="1" parent="1">
          <mxGeometry x="350" y="570" width="30" height="30" as="geometry" />
        </mxCell>
        <mxCell id="7r3X6bM9w-XORwUG6cQL-32" value="" style="ellipse;whiteSpace=wrap;html=1;aspect=fixed;fillColor=#e1d5e7;strokeColor=#9673a6;fontFamily=Comic Sans MS;" vertex="1" parent="1">
          <mxGeometry x="190" y="570" width="30" height="30" as="geometry" />
        </mxCell>
        <mxCell id="7r3X6bM9w-XORwUG6cQL-33" value="" style="endArrow=classic;html=1;fontColor=#46495D;strokeColor=#788AA3;fillColor=#B2C9AB;exitX=0;exitY=1;exitDx=0;exitDy=0;fontFamily=Comic Sans MS;" edge="1" source="7r3X6bM9w-XORwUG6cQL-36" parent="1">
          <mxGeometry width="50" height="50" relative="1" as="geometry">
            <mxPoint x="250" y="510" as="sourcePoint" />
            <mxPoint x="210" y="570" as="targetPoint" />
          </mxGeometry>
        </mxCell>
        <mxCell id="7r3X6bM9w-XORwUG6cQL-34" value="" style="endArrow=classic;html=1;fontColor=#46495D;strokeColor=#788AA3;fillColor=#B2C9AB;exitX=0.5;exitY=1;exitDx=0;exitDy=0;entryX=0.5;entryY=0;entryDx=0;entryDy=0;fontFamily=Comic Sans MS;" edge="1" source="7r3X6bM9w-XORwUG6cQL-36" target="7r3X6bM9w-XORwUG6cQL-30" parent="1">
          <mxGeometry width="50" height="50" relative="1" as="geometry">
            <mxPoint x="280" y="495" as="sourcePoint" />
            <mxPoint x="220" y="580" as="targetPoint" />
          </mxGeometry>
        </mxCell>
        <mxCell id="7r3X6bM9w-XORwUG6cQL-35" value="" style="endArrow=classic;html=1;fontColor=#46495D;strokeColor=#788AA3;fillColor=#B2C9AB;exitX=1;exitY=1;exitDx=0;exitDy=0;fontFamily=Comic Sans MS;" edge="1" source="7r3X6bM9w-XORwUG6cQL-36" parent="1">
          <mxGeometry width="50" height="50" relative="1" as="geometry">
            <mxPoint x="295" y="510" as="sourcePoint" />
            <mxPoint x="360" y="570" as="targetPoint" />
          </mxGeometry>
        </mxCell>
        <mxCell id="7r3X6bM9w-XORwUG6cQL-36" value="" style="ellipse;whiteSpace=wrap;html=1;aspect=fixed;fillColor=#e1d5e7;strokeColor=#9673a6;fontFamily=Comic Sans MS;" vertex="1" parent="1">
          <mxGeometry x="270" y="470" width="30" height="30" as="geometry" />
        </mxCell>
        <mxCell id="7r3X6bM9w-XORwUG6cQL-37" value="old dom" style="text;html=1;align=center;verticalAlign=middle;resizable=0;points=[];autosize=1;strokeColor=none;fontColor=#46495D;fontFamily=Comic Sans MS;" vertex="1" parent="1">
          <mxGeometry x="250" y="430" width="60" height="20" as="geometry" />
        </mxCell>
        <mxCell id="7r3X6bM9w-XORwUG6cQL-38" value="new dom" style="text;html=1;align=center;verticalAlign=middle;resizable=0;points=[];autosize=1;strokeColor=none;fontColor=#46495D;fontFamily=Comic Sans MS;" vertex="1" parent="1">
          <mxGeometry x="510" y="430" width="60" height="20" as="geometry" />
        </mxCell>
        <mxCell id="7r3X6bM9w-XORwUG6cQL-39" value="" style="edgeStyle=orthogonalEdgeStyle;curved=0;rounded=1;sketch=0;orthogonalLoop=1;jettySize=auto;html=1;fontFamily=Comic Sans MS;fontColor=#46495D;strokeColor=#788AA3;fillColor=#B2C9AB;" edge="1" source="7r3X6bM9w-XORwUG6cQL-40" target="7r3X6bM9w-XORwUG6cQL-31" parent="1">
          <mxGeometry relative="1" as="geometry" />
        </mxCell>
        <mxCell id="7r3X6bM9w-XORwUG6cQL-40" value="delete" style="text;html=1;align=center;verticalAlign=middle;resizable=0;points=[];autosize=1;strokeColor=none;fontFamily=Comic Sans MS;fontColor=#46495D;" vertex="1" parent="1">
          <mxGeometry x="350" y="640" width="50" height="20" as="geometry" />
        </mxCell>
        <mxCell id="7r3X6bM9w-XORwUG6cQL-41" value="" style="ellipse;whiteSpace=wrap;html=1;aspect=fixed;fillColor=#B2C9AB;strokeColor=#788AA3;fontColor=#46495D;fontFamily=Comic Sans MS;" vertex="1" parent="1">
          <mxGeometry x="740" y="160" width="30" height="30" as="geometry" />
        </mxCell>
        <mxCell id="7r3X6bM9w-XORwUG6cQL-42" value="vdom" style="text;html=1;align=center;verticalAlign=middle;resizable=0;points=[];autosize=1;strokeColor=none;fontFamily=Comic Sans MS;fontColor=#46495D;" vertex="1" parent="1">
          <mxGeometry x="690" y="165" width="40" height="20" as="geometry" />
        </mxCell>
        <mxCell id="7r3X6bM9w-XORwUG6cQL-43" value="" style="ellipse;whiteSpace=wrap;html=1;aspect=fixed;fillColor=#e1d5e7;strokeColor=#9673a6;fontFamily=Comic Sans MS;" vertex="1" parent="1">
          <mxGeometry x="740" y="220" width="30" height="30" as="geometry" />
        </mxCell>
        <mxCell id="7r3X6bM9w-XORwUG6cQL-44" value="dom" style="text;html=1;align=center;verticalAlign=middle;resizable=0;points=[];autosize=1;strokeColor=none;fontFamily=Comic Sans MS;fontColor=#46495D;" vertex="1" parent="1">
          <mxGeometry x="690" y="225" width="40" height="20" as="geometry" />
        </mxCell>
        <mxCell id="7r3X6bM9w-XORwUG6cQL-45" value="" style="ellipse;whiteSpace=wrap;html=1;aspect=fixed;fillColor=#B2C9AB;strokeColor=#788AA3;fontColor=#46495D;fontFamily=Comic Sans MS;" vertex="1" parent="1">
          <mxGeometry x="525" y="250" width="30" height="30" as="geometry" />
        </mxCell>
        <mxCell id="7r3X6bM9w-XORwUG6cQL-46" value="" style="ellipse;whiteSpace=wrap;html=1;aspect=fixed;fontFamily=Comic Sans MS;dashed=1;" vertex="1" parent="1">
          <mxGeometry x="605" y="250" width="30" height="30" as="geometry" />
        </mxCell>
        <mxCell id="7r3X6bM9w-XORwUG6cQL-47" value="" style="endArrow=classic;html=1;fontColor=#46495D;strokeColor=#788AA3;fillColor=#B2C9AB;exitX=0;exitY=1;exitDx=0;exitDy=0;fontFamily=Comic Sans MS;" edge="1" source="7r3X6bM9w-XORwUG6cQL-50" parent="1">
          <mxGeometry width="50" height="50" relative="1" as="geometry">
            <mxPoint x="505" y="190" as="sourcePoint" />
            <mxPoint x="465" y="250" as="targetPoint" />
          </mxGeometry>
        </mxCell>
        <mxCell id="7r3X6bM9w-XORwUG6cQL-48" value="" style="endArrow=classic;html=1;fontColor=#46495D;strokeColor=#788AA3;fillColor=#B2C9AB;exitX=0.5;exitY=1;exitDx=0;exitDy=0;entryX=0.5;entryY=0;entryDx=0;entryDy=0;fontFamily=Comic Sans MS;" edge="1" source="7r3X6bM9w-XORwUG6cQL-50" target="7r3X6bM9w-XORwUG6cQL-45" parent="1">
          <mxGeometry width="50" height="50" relative="1" as="geometry">
            <mxPoint x="535" y="175" as="sourcePoint" />
            <mxPoint x="475" y="260" as="targetPoint" />
          </mxGeometry>
        </mxCell>
        <mxCell id="7r3X6bM9w-XORwUG6cQL-49" value="" style="endArrow=classic;html=1;fontColor=#46495D;strokeColor=#788AA3;fillColor=#B2C9AB;exitX=1;exitY=1;exitDx=0;exitDy=0;fontFamily=Comic Sans MS;" edge="1" source="7r3X6bM9w-XORwUG6cQL-50" parent="1">
          <mxGeometry width="50" height="50" relative="1" as="geometry">
            <mxPoint x="550" y="190" as="sourcePoint" />
            <mxPoint x="615" y="250" as="targetPoint" />
          </mxGeometry>
        </mxCell>
        <mxCell id="7r3X6bM9w-XORwUG6cQL-50" value="" style="ellipse;whiteSpace=wrap;html=1;aspect=fixed;fillColor=#B2C9AB;strokeColor=#788AA3;fontColor=#46495D;fontFamily=Comic Sans MS;" vertex="1" parent="1">
          <mxGeometry x="525" y="150" width="30" height="30" as="geometry" />
        </mxCell>
        <mxCell id="7r3X6bM9w-XORwUG6cQL-51" value="" style="ellipse;whiteSpace=wrap;html=1;aspect=fixed;fillColor=#B2C9AB;strokeColor=#788AA3;fontColor=#46495D;fontFamily=Comic Sans MS;" vertex="1" parent="1">
          <mxGeometry x="445" y="250" width="30" height="30" as="geometry" />
        </mxCell>
        <mxCell id="7r3X6bM9w-XORwUG6cQL-53" value="" style="edgeStyle=orthogonalEdgeStyle;curved=0;rounded=1;sketch=0;orthogonalLoop=1;jettySize=auto;html=1;fontFamily=Comic Sans MS;fontColor=#46495D;strokeColor=#788AA3;fillColor=#B2C9AB;" edge="1" parent="1" source="7r3X6bM9w-XORwUG6cQL-52" target="7r3X6bM9w-XORwUG6cQL-46">
          <mxGeometry relative="1" as="geometry" />
        </mxCell>
        <mxCell id="7r3X6bM9w-XORwUG6cQL-52" value="null" style="text;html=1;align=center;verticalAlign=middle;resizable=0;points=[];autosize=1;strokeColor=none;fontFamily=Comic Sans MS;fontColor=#46495D;" vertex="1" parent="1">
          <mxGeometry x="610" y="320" width="30" height="20" as="geometry" />
        </mxCell>
      </root>
    </mxGraphModel>
  </diagram>
</mxfile>
